<svg data-logo="logo" xmlns="http://www.w3.org/2000/svg" viewBox="0 0 315 43">
        <g id="logogram" transform="translate(0, 1) rotate(0)" style="opacity: 1;"><path d="M68.75 0.809967H96.25L72.5 40.81H45L68.75 0.809967Z" fill="#FF7A00"></path><path d="M43.75 0.809967H63.75L40 40.81H20L43.75 0.809967Z" fill="#FF9736"></path><path d="M23.75 0.809967H38.75L15 40.81H0L23.75 0.809967Z" fill="#FFBC7D"></path></g>
        <g id="logotype" transform="translate(103, 2)" style="opacity: 1;"><path fill="#100e0e" d="M22.98 32.49L22.98 32.49Q18.08 32.49 14.45 30.90Q10.83 29.30 8.85 26.38Q6.88 23.46 6.88 19.50L6.88 19.50Q6.88 17.51 7.38 15.78Q7.89 14.04 8.85 12.61Q9.82 11.17 11.23 10.04Q12.65 8.90 14.44 8.11Q16.22 7.32 18.37 6.92Q20.53 6.52 22.98 6.52L22.98 6.52Q27.46 6.52 30.78 7.64Q34.11 8.76 36.08 10.82Q38.06 12.89 38.45 15.86L38.45 15.86L31.34 15.86Q30.92 14.50 29.78 13.55Q28.65 12.61 26.93 12.10Q25.22 11.59 22.98 11.59L22.98 11.59Q21.61 11.59 20.37 11.84Q19.13 12.08 18.11 12.56Q17.09 13.03 16.31 13.71Q15.52 14.39 14.98 15.29Q14.44 16.18 14.14 17.23Q13.84 18.28 13.84 19.50L13.84 19.50Q13.84 21.95 14.96 23.72Q16.08 25.49 18.13 26.45Q20.18 27.41 22.98 27.41L22.98 27.41Q25.22 27.41 26.93 26.91Q28.65 26.40 29.77 25.45Q30.89 24.51 31.31 23.14L31.31 23.14L38.45 23.14Q38.06 26.12 36.08 28.20Q34.11 30.29 30.80 31.39Q27.49 32.49 22.98 32.49ZM47.37 32L40.97 32L40.97 7.01L47.37 7.01L47.37 32ZM57.63 32L51.22 32L51.22 14.01L57.63 14.01L57.63 32ZM57.66 11.84L51.19 11.84L51.19 7.01L57.66 7.01L57.66 11.84ZM67.39 38.65L60.98 38.65L60.98 14.01L67.39 14.01L67.39 18.56L66.80 17.37Q67.50 16.28 68.69 15.41Q69.88 14.53 71.59 14.03Q73.31 13.52 75.51 13.52L75.51 13.52Q78.10 13.52 80.31 14.59Q82.51 15.65 83.88 17.75Q85.24 19.85 85.24 23.04L85.24 23.04Q85.24 24.93 84.73 26.45Q84.22 27.98 83.30 29.11Q82.37 30.25 81.15 30.98Q79.92 31.72 78.48 32.10Q77.05 32.49 75.51 32.49L75.51 32.49Q73.31 32.49 71.59 31.98Q69.88 31.48 68.69 30.60Q67.50 29.73 66.80 28.64L66.80 28.64L67.39 27.45L67.39 38.65ZM73.03 27.98L73.03 27.98Q74.14 27.98 75.04 27.73Q75.93 27.48 76.61 27.01Q77.30 26.54 77.75 25.93Q78.20 25.31 78.45 24.56Q78.69 23.81 78.69 23.00L78.69 23.00Q78.69 21.64 78.03 20.52Q77.37 19.40 76.12 18.72Q74.88 18.03 73.03 18.03L73.03 18.03Q71.94 18.03 71.05 18.28Q70.16 18.52 69.45 19.00Q68.75 19.47 68.27 20.08Q67.78 20.70 67.53 21.43Q67.28 22.16 67.28 23.00L67.28 23.00Q67.28 24.37 67.97 25.51Q68.65 26.64 69.93 27.31Q71.20 27.98 73.03 27.98ZM98.26 32.49L98.26 32.49Q95.36 32.49 93.31 32.03Q91.26 31.58 89.95 30.79Q88.64 30.00 87.99 28.95Q87.34 27.91 87.20 26.75L87.20 26.75L93.61 26.75Q93.78 27.20 94.29 27.61Q94.80 28.01 95.78 28.22Q96.75 28.43 98.26 28.43L98.26 28.43Q99.69 28.43 100.62 28.22Q101.55 28.01 102.00 27.61Q102.46 27.20 102.46 26.71L102.46 26.71Q102.46 26.19 102.08 25.91Q101.69 25.63 100.81 25.49L100.81 25.49L95.11 24.79Q91.26 24.30 89.47 23.00Q87.69 21.71 87.69 19.40L87.69 19.40Q87.69 18.07 88.34 17.00Q88.98 15.93 90.25 15.15Q91.50 14.36 93.41 13.94Q95.32 13.52 97.81 13.52L97.81 13.52Q101.38 13.52 103.55 14.20Q105.72 14.88 106.80 16.11Q107.89 17.34 108.09 19.02L108.09 19.02L101.69 19.02Q101.62 18.56 101.17 18.24Q100.71 17.93 99.87 17.75Q99.03 17.58 97.70 17.58L97.70 17.58Q96.47 17.58 95.69 17.77Q94.90 17.96 94.52 18.30Q94.13 18.63 94.13 19.09L94.13 19.09Q94.13 19.61 94.57 19.87Q95.00 20.13 95.81 20.27L95.81 20.27L102.32 21.08Q104.28 21.32 105.77 21.92Q107.25 22.52 108.13 23.62Q109.00 24.72 109.00 26.43L109.00 26.43Q109.00 27.94 108.29 29.08Q107.57 30.21 106.19 30.98Q104.81 31.75 102.79 32.12Q100.78 32.49 98.26 32.49ZM126.61 32L120.20 32Q117.34 32 115.66 30.46Q113.97 28.92 113.97 26.16L113.97 26.16L113.97 9.14L120.38 9.14L120.38 25.11Q120.38 26.40 121.06 27.10Q121.75 27.80 123.08 27.80L123.08 27.80L126.61 27.80L126.61 32ZM114.53 18.14L109.81 18.14L109.81 14.01L114.53 14.01L114.53 18.14ZM126.61 18.14L119.82 18.14L119.82 14.01L126.61 14.01L126.61 18.14ZM140.26 32.49L140.26 32.49Q136.45 32.49 133.75 31.30Q131.06 30.11 129.64 27.96Q128.22 25.80 128.22 23.00L128.22 23.00Q128.22 21.29 128.73 19.84Q129.24 18.38 130.23 17.21Q131.23 16.04 132.70 15.22Q134.17 14.39 136.06 13.96Q137.95 13.52 140.23 13.52L140.23 13.52Q143.03 13.52 145.21 14.15Q147.40 14.78 148.91 16.13Q150.41 17.47 151.18 19.50Q151.95 21.53 151.92 24.34L151.92 24.34L132.31 24.34L132.31 21.11L145.44 21.11Q145.27 20.27 144.83 19.64Q144.39 19.02 143.71 18.58Q143.03 18.14 142.15 17.93Q141.28 17.72 140.19 17.72L140.19 17.72Q139.07 17.72 138.14 17.98Q137.22 18.24 136.52 18.70Q135.81 19.16 135.38 19.80Q134.94 20.45 134.70 21.25Q134.45 22.06 134.45 23.00L134.45 23.00Q134.45 24.54 135.10 25.73Q135.75 26.93 137.06 27.61Q138.37 28.29 140.30 28.29L140.30 28.29Q141.98 28.29 143.18 27.89Q144.39 27.48 145.02 26.68L145.02 26.68L151.67 26.68Q151.25 28.25 149.96 29.59Q148.66 30.91 146.30 31.70Q143.94 32.49 140.26 32.49ZM160.98 32L154.58 32L154.58 14.01L160.98 14.01L160.98 20.73L160.46 20.59Q161.02 18.17 161.94 16.72Q162.87 15.27 164.31 14.64Q165.74 14.01 167.81 14.01L167.81 14.01L169.49 14.01L169.49 19.47L167 19.47Q165.22 19.47 163.85 20.27Q162.49 21.08 161.73 22.53Q160.98 23.98 160.98 25.84L160.98 25.84L160.98 32ZM178.55 32L172.15 32L172.15 14.01L178.55 14.01L178.55 20.73L178.03 20.59Q178.59 18.17 179.51 16.72Q180.44 15.27 181.88 14.64Q183.31 14.01 185.38 14.01L185.38 14.01L187.06 14.01L187.06 19.47L184.57 19.47Q182.78 19.47 181.42 20.27Q180.06 21.08 179.30 22.53Q178.55 23.98 178.55 25.84L178.55 25.84L178.55 32ZM195.81 32.49L195.81 32.49Q192.31 32.49 190.33 31.05Q188.35 29.62 188.35 27.10L188.35 27.10Q188.35 25.49 189.19 24.34Q190.03 23.18 191.71 22.45Q193.39 21.71 195.94 21.50L195.94 21.50L202.59 20.80Q203.40 20.73 203.80 20.40Q204.21 20.06 204.21 19.54L204.21 19.54L204.21 19.50Q204.21 18.88 203.68 18.44Q203.16 18 202.23 17.77Q201.30 17.54 200.00 17.54L200.00 17.54Q198.05 17.54 196.93 17.98Q195.81 18.42 195.56 19.29L195.56 19.29L189.19 19.29Q189.54 17.41 190.91 16.13Q192.27 14.85 194.60 14.18Q196.93 13.52 200.15 13.52L200.15 13.52Q203.68 13.52 205.99 14.27Q208.30 15.02 209.46 16.56Q210.61 18.10 210.61 20.45L210.61 20.45L210.61 32L204.52 32L204.52 26.75L205.19 27.55Q204.38 29.20 203.09 30.29Q201.79 31.37 199.99 31.93Q198.19 32.49 195.81 32.49ZM198.12 28.29L198.12 28.29Q199.41 28.29 200.51 27.96Q201.62 27.63 202.46 27.05Q203.30 26.47 203.75 25.70Q204.21 24.93 204.21 24.05L204.21 24.05L204.21 21.71L205.22 23.18Q204.69 23.49 203.82 23.74Q202.94 23.98 201.55 24.16L201.55 24.16L197.00 24.72Q195.94 24.86 195.44 25.26Q194.93 25.66 194.93 26.40L194.93 26.40Q194.93 27.27 195.75 27.78Q196.57 28.29 198.12 28.29Z"></path></g>
        
      </svg>